<svg xmlns="http://www.w3.org/2000/svg" width="43.33" height="43.33" viewBox="0 0 43.33 43.33">
  <path id="Icon_awesome-download" data-name="Icon awesome-download" d="M18.28,0h6.77a2.026,2.026,0,0,1,2.031,2.031V16.249H34.5A1.689,1.689,0,0,1,35.7,19.135L22.824,32.015a1.64,1.64,0,0,1-2.31,0L7.625,19.135a1.689,1.689,0,0,1,1.193-2.886h7.43V2.031A2.026,2.026,0,0,1,18.28,0ZM43.33,31.821V41.3A2.026,2.026,0,0,1,41.3,43.33H2.031A2.026,2.026,0,0,1,0,41.3V31.821a2.026,2.026,0,0,1,2.031-2.031H14.446l4.147,4.147a4.337,4.337,0,0,0,6.144,0l4.147-4.147H41.3A2.026,2.026,0,0,1,43.33,31.821ZM32.836,39.268a1.693,1.693,0,1,0-1.693,1.693A1.7,1.7,0,0,0,32.836,39.268Zm5.416,0A1.693,1.693,0,1,0,36.56,40.96,1.7,1.7,0,0,0,38.252,39.268Z" fill="#007af3"/>
</svg>
