<svg xmlns="http://www.w3.org/2000/svg" width="165" height="165" viewBox="0 0 165 165">
  <g id="Pöttyök" transform="translate(-139 -1092)">
    <circle id="Ellipse_1" data-name="Ellipse 1" cx="8.5" cy="8.5" r="8.5" transform="translate(139 1092)" fill="#fff"/>
    <circle id="Ellipse_1-2" data-name="Ellipse 1" cx="8.5" cy="8.5" r="8.5" transform="translate(176 1092)" fill="#fff"/>
    <circle id="Ellipse_1-3" data-name="Ellipse 1" cx="8.5" cy="8.5" r="8.5" transform="translate(213 1092)" fill="#fff"/>
    <circle id="Ellipse_1-4" data-name="Ellipse 1" cx="8.5" cy="8.5" r="8.5" transform="translate(250 1092)" fill="#fff"/>
    <circle id="Ellipse_1-5" data-name="Ellipse 1" cx="8.5" cy="8.5" r="8.5" transform="translate(287 1092)" fill="#fff"/>
    <circle id="Ellipse_1-6" data-name="Ellipse 1" cx="8.5" cy="8.5" r="8.5" transform="translate(139 1129)" fill="#fff"/>
    <circle id="Ellipse_1-7" data-name="Ellipse 1" cx="8.5" cy="8.5" r="8.5" transform="translate(176 1129)" fill="#fff"/>
    <circle id="Ellipse_1-8" data-name="Ellipse 1" cx="8.5" cy="8.5" r="8.5" transform="translate(213 1129)" fill="#fff"/>
    <circle id="Ellipse_1-9" data-name="Ellipse 1" cx="8.5" cy="8.5" r="8.5" transform="translate(250 1129)" fill="#fff"/>
    <circle id="Ellipse_1-10" data-name="Ellipse 1" cx="8.5" cy="8.5" r="8.5" transform="translate(287 1129)" fill="#fff"/>
    <circle id="Ellipse_1-11" data-name="Ellipse 1" cx="8.5" cy="8.5" r="8.5" transform="translate(139 1166)" fill="#fff"/>
    <circle id="Ellipse_1-12" data-name="Ellipse 1" cx="8.5" cy="8.5" r="8.5" transform="translate(176 1166)" fill="#fff"/>
    <circle id="Ellipse_1-13" data-name="Ellipse 1" cx="8.5" cy="8.5" r="8.5" transform="translate(213 1166)" fill="#fff"/>
    <circle id="Ellipse_1-14" data-name="Ellipse 1" cx="8.5" cy="8.5" r="8.5" transform="translate(250 1166)" fill="#fff"/>
    <circle id="Ellipse_1-15" data-name="Ellipse 1" cx="8.5" cy="8.5" r="8.5" transform="translate(287 1166)" fill="#fff"/>
    <circle id="Ellipse_1-16" data-name="Ellipse 1" cx="8.5" cy="8.5" r="8.5" transform="translate(139 1203)" fill="#fff"/>
    <circle id="Ellipse_1-17" data-name="Ellipse 1" cx="8.5" cy="8.5" r="8.5" transform="translate(176 1203)" fill="#fff"/>
    <circle id="Ellipse_1-18" data-name="Ellipse 1" cx="8.5" cy="8.5" r="8.5" transform="translate(213 1203)" fill="#fff"/>
    <circle id="Ellipse_1-19" data-name="Ellipse 1" cx="8.5" cy="8.5" r="8.5" transform="translate(250 1203)" fill="#fff"/>
    <circle id="Ellipse_1-20" data-name="Ellipse 1" cx="8.5" cy="8.5" r="8.5" transform="translate(287 1203)" fill="#fff"/>
    <circle id="Ellipse_1-21" data-name="Ellipse 1" cx="8.5" cy="8.5" r="8.5" transform="translate(139 1240)" fill="#fff"/>
    <circle id="Ellipse_1-22" data-name="Ellipse 1" cx="8.5" cy="8.5" r="8.5" transform="translate(176 1240)" fill="#fff"/>
    <circle id="Ellipse_1-23" data-name="Ellipse 1" cx="8.5" cy="8.5" r="8.5" transform="translate(213 1240)" fill="#fff"/>
    <circle id="Ellipse_1-24" data-name="Ellipse 1" cx="8.5" cy="8.5" r="8.5" transform="translate(250 1240)" fill="#fff"/>
    <circle id="Ellipse_1-25" data-name="Ellipse 1" cx="8.5" cy="8.5" r="8.5" transform="translate(287 1240)" fill="#fff"/>
  </g>
</svg>
